# xmcd CD database file
#
# Track frame offsets:
#	150
#	13128
#	30960
#	58520
#	79541
#	109326
#	122483
#	135739
#	145421
#	166312
#	178478
#	202313
#	236116
#	256382
#	279127
#	303637
#
# Disc length: 4310 seconds
#
# Revision: 0
# Processed by: cddbd v1.5.2PL0 Copyright (c) Steve Scherf et al.
# Submitted via: CDex 1.51
#
DISCID=e710d410
DTITLE=Various Artist - Beginners Guide to Latin Jazz  CD 1 1940-1960
DYEAR=2008
DGENRE=Jazz
TTITLE0=Varsity Drag  - Tito Puente
TTITLE1=Cubano Chant - Art Blackey
TTITLE2=Samba de orfeu - Herbie Mann
TTITLE3=Bitter Sweet - Charlie Palmieri
TTITLE4=Burnin' Coal - Les McCann
TTITLE5=Mango Mangue - Charlie Parker and Machito
TTITLE6=Gone City - Machito and his Afro Band
TTITLE7=A hard day's night - Eddie Cano
TTITLE8=Mablues - Cal Tjader
TTITLE9=Boogie Stop Schuffler - Quicy Jones and his Orchestra
TTITLE10=Mean Lene - Albert Laws
TTITLE11=Descarga at the Blackhawk - Mongo Santamaria
TTITLE12=Mozambique - Louie Ramirez
TTITLE13=Pedro Strodder - Johnny Lytle
TTITLE14=Grazin' in the Grass - Willie Bobo
TTITLE15=Tin Tin Deo - Dizzie Gillespie
EXTD=YEAR: 2008
EXTT0=
EXTT1=
EXTT2=
EXTT3=
EXTT4=
EXTT5=
EXTT6=
EXTT7=
EXTT8=
EXTT9=
EXTT10=
EXTT11=
EXTT12=
EXTT13=
EXTT14=
EXTT15=
PLAYORDER=
